{"title":"Richard Hammond's Invisible Worlds 2010 DVDrip English Klam","uid":6171280,"size":1889030216,"categoryP":"video","categoryS":"movies","magnet":"?xt=urn:btih:fbf5dc77b8d7765571959134c48ec9e87b24cfde&amp;dn=Richard+Hammond%5C%27s+Invisible+Worlds+2010+DVDrip+English+Klam&amp;tr=udp%3A%2F%2Ftracker.openbittorrent.com%3A80&amp;tr=udp%3A%2F%2Fopen.demonii.com%3A1337&amp;tr=udp%3A%2F%2Ftracker.coppersurfer.tk%3A6969&amp;tr=udp%3A%2F%2Fexodus.desync.com%3A6969","seeders":1,"leechers":0,"uploader":"Klambake","files":-1,"time":1297592149,"description":"Richard Hammond's Invisible Worlds is a BBC television documentary programme presented by Richard Hammond that features state-of-the-art camera technology used to focus on what humans cannot see with the naked eye. It is one series long consisting of three episodes.\n\n1: Speed Limits\n2: Out of Sight\n3: Off the Scale\n\nGeneral:\n\nComplete name                    : Invisible Worlds\\02Out of Sight.avi\nFormat                           : AVI\nFormat/Info                      : Audio Video Interleave\nFile size                        : 600 MiB\nDuration                         : 50mn 15s\nOverall bit rate                 : 1 671 Kbps\n\nVideo:\n\nFormat                           : MPEG-4 Visual\nFormat profile                   : Simple@L3\nFormat settings, BVOP            : No\nFormat settings, QPel            : No\nFormat settings, GMC             : No warppoints\nFormat settings, Matrix          : Default (H.263)\nCodec ID                         : XVID\nCodec ID/Hint                    : XviD\nDuration                         : 50mn 15s\nBit rate                         : 1 212 Kbps\nWidth                            : 704 pixels\nHeight                           : 396 pixels\nDisplay aspect ratio             : 16:9\nFrame rate                       : 25.000 fps\nColor space                      : YUV\nChroma subsampling               : 4:2:0\nBit depth                        : 8 bits\nScan type                        : Progressive\nBits/(Pixel*Frame)               : 0.174\nStream size                      : 436 MiB (73%)\nWriting library                  : XviD 1.1.2 (UTC 2006-11-01)\n\nAudio:\n\nFormat                           : AC-3\nFormat/Info                      : Audio Coding 3\nMode extension                   : CM (complete main)\nCodec ID                         : 2000\nDuration                         : 50mn 15s\nBit rate mode                    : Constant\nBit rate                         : 448 Kbps\nChannel(s)                       : 6 channels\nChannel positions                : Front: L C R, Side: L R, LFE\nSampling rate                    : 48.0 KHz\nBit depth                        : 16 bits\nStream size                      : 161 MiB (27%)\nAlignment                        : Aligned on interleaves\nInterleave, duration             : 32 ms (0.80 video frame)\n","torrent":{"xt":"urn:btih:fbf5dc77b8d7765571959134c48ec9e87b24cfde","amp;dn":"Richard+Hammond%5C%27s+Invisible+Worlds+2010+DVDrip+English+Klam","amp;tr":["udp%3A%2F%2Ftracker.openbittorrent.com%3A80","udp%3A%2F%2Fopen.demonii.com%3A1337","udp%3A%2F%2Ftracker.coppersurfer.tk%3A6969","udp%3A%2F%2Fexodus.desync.com%3A6969"],"infoHash":"fbf5dc77b8d7765571959134c48ec9e87b24cfde","infoHashBuffer":{"type":"Buffer","data":[251,245,220,119,184,215,118,85,113,149,145,52,196,142,201,232,123,36,207,222]},"announce":[],"urlList":[]}}